<svg width="70" height="70" fill="none" xmlns="http://www.w3.org/2000/svg"><defs><linearGradient x1="49.647" y1="1.964" x2="0" y2="70" id="a" gradientUnits="userSpaceOnUse"><stop stop-color="#747DEF"/><stop offset="1" stop-color="#5E3BE1"/></linearGradient><linearGradient x1="32.408" y1="34.544" x2="25.264" y2="40.955" id="b" gradientUnits="userSpaceOnUse"><stop stop-color="#747DEF"/><stop offset="1" stop-color="#5E3BE1"/></linearGradient><linearGradient x1="32.903" y1="35.402" x2="25.264" y2="40.955" id="c" gradientUnits="userSpaceOnUse"><stop stop-color="#747DEF"/><stop offset="1" stop-color="#5E3BE1"/></linearGradient></defs><circle cx="35" cy="35" r="35" fill="url(#a)"/><path d="M52.61 23.99c.69 1.19.59 2.62-.25 3.72l-18.47 24.1c-.76 1-2.02 1.5-3.3 1.26a3.344 3.344 0 01-2.6-2.39l-2.73-9.73-.29-1.01-.73-.75-7.06-7.24a3.334 3.334 0 01-.77-3.44 3.369 3.369 0 012.74-2.23l30.11-3.94c1.37-.18 2.65.45 3.35 1.65z" fill="#FFF"/><path d="M25.26 40.95l2.73 9.73a3.344 3.344 0 002.6 2.39c1.28.24 2.54-.26 3.3-1.26l18.47-24.1c.84-1.1.94-2.53.25-3.72L24.97 39.94l.29 1.01z" fill="#FFF"/><path d="M36.22 33.45c.28.48.11 1.11-.37 1.39l-10.59 6.11-.29-1.01-.73-.75 10.59-6.12a1.02 1.02 0 011.39.38z" fill="url(#b)"/><path d="M25.26 40.95l10.59-6.11c.48-.28.65-.91.37-1.39l-11.25 6.49.29 1.01z" fill="url(#c)"/></svg>